HIERARCHY
ROOT hip
{
	OFFSET 0.000000 0.000000 0.000000
	CHANNELS 6 Xposition Yposition Zposition Xrotation Zrotation Yrotation 
	JOINT abdomen
	{
		OFFSET 0.000000 3.422050 0.000000
		CHANNELS 3 Xrotation Zrotation Yrotation 
		JOINT chest
		{
			OFFSET 0.000000 8.486693 -0.684411
			CHANNELS 3 Xrotation Zrotation Yrotation 
			JOINT neck
			{
				OFFSET 0.000000 10.266162 -0.273764
				CHANNELS 3 Xrotation Zrotation Yrotation 
				JOINT head
				{
					OFFSET 0.000000 3.148285 0.000000
					CHANNELS 3 Xrotation Zrotation Yrotation 
					End Site
					{
						OFFSET 0.000000 3.148289 0.000000
					}
				}
			}
			JOINT lCollar
			{
				OFFSET 3.422053 6.707223 -0.821293
				CHANNELS 3 Yrotation Zrotation Xrotation 
				JOINT lShldr
				{
					OFFSET 3.285171 0.000000 0.000000
					CHANNELS 3 Zrotation Yrotation Xrotation 
					JOINT lForeArm
					{
						OFFSET 10.129278 0.000000 0.000000
						CHANNELS 3 Yrotation Zrotation Xrotation 
						JOINT lHand
						{
							OFFSET 8.486692 0.000000 0.000000
							CHANNELS 3 Zrotation Yrotation Xrotation 
							End Site
							{
								OFFSET 4.106464 0.000000 0.000000
							}
						}
					}
				}
			}
			JOINT rCollar
			{
				OFFSET -3.558935 6.707223 -0.821293
				CHANNELS 3 Yrotation Zrotation Xrotation 
				JOINT rShldr
				{
					OFFSET -3.148289 0.000000 0.000000
					CHANNELS 3 Zrotation Yrotation Xrotation 
					JOINT rForeArm
					{
						OFFSET -10.266159 0.000000 0.000000
						CHANNELS 3 Yrotation Zrotation Xrotation 
						JOINT rHand
						{
							OFFSET -8.349810 0.000000 0.000000
							CHANNELS 3 Zrotation Yrotation Xrotation 
							End Site
							{
								OFFSET -4.106464 0.000000 0.000000
							}
						}
					}
				}
			}
		}
	}
	JOINT lThigh
	{
		OFFSET 5.338403 -1.642589 1.368821
		CHANNELS 3 Xrotation Zrotation Yrotation 
		JOINT lShin
		{
			OFFSET -2.053232 -20.121670 0.000000
			CHANNELS 3 Xrotation Zrotation Yrotation 
			JOINT lFoot
			{
				OFFSET 0.000000 -19.300380 -1.231939
				CHANNELS 3 Xrotation Yrotation Zrotation 
				End Site
				{
					OFFSET 0.000000 -2.463878 4.653993
				}
			}
		}
	}
	JOINT rThigh
	{
		OFFSET -5.338403 -1.642589 1.368821
		CHANNELS 3 Xrotation Zrotation Yrotation 
		JOINT rShin
		{
			OFFSET 2.053232 -20.121670 0.000000
			CHANNELS 3 Xrotation Zrotation Yrotation 
			JOINT rFoot
			{
				OFFSET 0.000000 -19.300380 -1.231939
				CHANNELS 3 Xrotation Yrotation Zrotation 
				End Site
				{
					OFFSET 0.000000 -2.463878 4.653993
				}
			}
		}
	}
}
MOTION
Frames: 18
Frame Time: 0.049897
-30.004339 17.999720 11.999940 -0.002369 -7.002477 89.998291 74.390099 -0.000522 16.998684 -7.637856 -0.230731 -20.924545 -27.002464 -0.002056 40.997440 -13.752189 0.319705 -41.570873 -6.316289 -4.145711 -8.744892 81.751556 -83.983719 -53.593040 -15.516562 -0.001815 -20.001431 44.997231 0.999224 -21.001129 0.000000 0.000000 -10.002190 21.606417 37.301285 -52.394447 79.494469 0.706077 -19.873407 10.999682 9.998943 19.999123 -32.002014 7.997613 -12.001884 112.994598 0.000000 0.000000 66.999611 0.000001 -0.000001 -32.000767 -10.002048 4.997875 109.999611 -0.000001 0.000001 66.999611 0.000001 -0.000001 
-30.004339 17.999720 11.999940 -0.002369 -7.002477 89.998291 74.352699 -0.000527 16.998678 -8.278158 -0.212584 -20.830751 -27.002464 -0.002057 40.997440 -13.210105 0.310511 -41.490479 -6.337334 -4.159812 -8.741445 82.211838 -84.495453 -56.594849 -17.136889 -0.001780 -20.001480 44.997231 0.999224 -21.001129 0.000000 0.000000 -10.002190 23.146467 38.929131 -50.854244 80.607651 0.722958 -19.877619 10.999681 9.998943 19.999123 -32.002014 7.997613 -12.001884 112.994598 0.000000 0.000000 66.999611 0.000001 -0.000001 -32.000767 -10.002048 4.997875 109.999611 -0.000001 0.000001 66.999611 0.000001 -0.000001 
-30.004339 17.999720 11.999940 -0.002369 -7.002477 89.998291 74.315300 -0.000531 16.998674 -8.917713 -0.193411 -20.737284 -27.002464 -0.002057 40.997440 -12.668344 0.300564 -41.410225 -6.358377 -4.173914 -8.738003 83.032135 -85.007034 -59.970238 -18.765650 -0.001743 -20.001528 44.997231 0.999224 -21.001129 0.000000 0.000000 -10.002190 24.778177 40.521214 -49.222404 81.718094 0.739712 -19.882151 10.999681 9.998943 19.999123 -32.002014 7.997613 -12.001884 112.994598 0.000000 0.000000 66.999611 0.000001 -0.000001 -32.000767 -10.002048 4.997875 109.999611 -0.000001 0.000001 66.999611 0.000001 -0.000001 
-30.004339 17.999720 11.999940 -0.002369 -7.002477 89.998291 74.277908 -0.000535 16.998669 -9.556472 -0.173221 -20.644138 -27.002464 -0.002056 40.997440 -12.126935 0.289865 -41.330116 -6.379421 -4.188017 -8.734568 84.336037 -85.515190 -63.840385 -20.402250 -0.001706 -20.001574 44.997231 0.999224 -21.001129 0.000000 0.000000 -10.002190 26.507084 42.073177 -47.493355 82.825569 0.756331 -19.886990 10.999682 9.998943 19.999123 -32.002014 7.997613 -12.001884 112.994598 0.000000 0.000000 66.999611 0.000001 -0.000001 -32.000767 -10.002048 4.997875 109.999611 -0.000001 0.000001 66.999611 0.000001 -0.000001 
-30.004339 17.999720 11.999940 -0.002369 -7.002477 89.998291 74.240517 -0.000540 16.998665 -10.194403 -0.152022 -20.551342 -27.002464 -0.002057 40.997437 -11.585898 0.278418 -41.250153 -6.400464 -4.202123 -8.731137 86.302841 -86.015862 -68.382095 -22.046072 -0.001666 -20.001619 44.997231 0.999224 -21.001129 0.000000 0.000000 -10.002190 28.338686 43.580467 -45.661591 83.929901 0.772807 -19.892138 10.999681 9.998943 19.999123 -32.002014 7.997613 -12.001884 112.994598 0.000000 0.000000 66.999611 0.000001 -0.000001 -32.000767 -10.002048 4.997875 109.999611 -0.000001 0.000001 66.999611 0.000001 -0.000001 
-30.004339 17.999720 11.999940 -0.002369 -7.002477 89.998291 74.203117 -0.000545 16.998657 -10.831457 -0.129820 -20.458912 -27.002464 -0.002057 40.997440 -11.045264 0.266225 -41.170372 -6.421507 -4.216230 -8.727714 89.198799 -86.503578 -73.859001 -23.696489 -0.001624 -20.001667 44.997231 0.999224 -21.001129 0.000000 0.000000 -10.002190 30.278341 45.038322 -43.721806 85.030861 0.789131 -19.897581 10.999681 9.998943 19.999123 -32.002014 7.997613 -12.001884 112.994598 0.000000 0.000000 66.999611 0.000001 -0.000001 -32.000767 -10.002048 4.997875 109.999611 -0.000001 0.000001 66.999611 0.000001 -0.000001 
-30.004339 17.999720 11.999940 -0.002369 -7.002477 89.998291 74.165710 -0.000548 16.998652 -11.467597 -0.106625 -20.366859 -27.002462 -0.002057 40.997440 -10.505054 0.253289 -41.090759 -6.442550 -4.230337 -8.724294 93.420769 -86.968849 -80.665398 -25.352850 -0.001582 -20.001713 44.997231 0.999224 -21.001129 0.000000 0.000000 -10.002190 31.315868 46.751801 -42.684158 86.128326 0.805294 -19.903322 10.999680 9.998943 19.999123 -32.002014 7.997613 -12.001884 112.994598 0.000000 0.000000 66.999611 0.000001 -0.000001 -32.000767 -10.002048 4.997875 109.999611 -0.000001 0.000001 66.999611 0.000001 -0.000001 
-30.004339 17.999720 11.999940 -0.002369 -7.002477 89.998291 74.128334 -0.000553 16.998652 -12.102788 -0.082445 -20.275200 -27.002464 -0.002056 40.997444 -9.965296 0.239616 -41.011349 -6.463591 -4.244445 -8.720878 99.551003 -87.397873 -89.380898 -27.014482 -0.001539 -20.001755 44.997231 0.999224 -21.001129 0.000000 0.000000 -10.002190 32.436611 48.454609 -41.563274 87.222054 0.821292 -19.909348 10.999681 9.998943 19.999125 -32.002014 7.997613 -12.001884 112.994598 0.000000 0.000000 66.999611 0.000001 -0.000001 -32.000767 -10.002048 4.997875 109.999611 -0.000001 0.000001 66.999611 0.000001 -0.000001 
-30.004339 17.999720 11.999940 -0.002369 -7.002477 89.998291 74.090919 -0.000559 16.998642 -12.736987 -0.057288 -20.183958 -27.002464 -0.002057 40.997440 -9.426011 0.225206 -40.932129 -6.484632 -4.258555 -8.717468 108.360870 -87.768692 -100.774239 -28.680719 -0.001494 -20.001797 44.997231 0.999224 -21.001129 0.000000 0.000000 -10.002190 33.650032 50.143993 -40.349743 88.311897 0.837114 -19.915655 10.999681 9.998943 19.999123 -32.002014 7.997613 -12.001884 112.994598 0.000000 0.000000 66.999611 0.000001 -0.000001 -32.000767 -10.002048 4.997875 109.999611 -0.000001 0.000001 66.999611 0.000001 -0.000001 
-30.004339 17.999720 11.999940 -0.002369 -7.002477 89.998291 74.053513 -0.000562 16.998634 -13.370151 -0.031165 -20.093130 -27.002462 -0.002057 40.997440 -8.887227 0.210066 -40.853123 -6.505673 -4.272667 -8.714066 120.549217 -88.045296 -115.541641 -30.350878 -0.001447 -20.001839 44.997231 0.999224 -21.001129 0.000000 0.000000 -10.002190 34.966854 51.816853 -39.032780 89.397675 0.852756 -19.922235 10.999681 9.998943 19.999123 -32.002014 7.997613 -12.001884 112.994598 0.000000 0.000000 66.999611 0.000001 -0.000001 -32.000767 -10.002048 4.997875 109.999611 -0.000001 0.000001 66.999611 0.000001 -0.000001 
-30.004339 17.999720 11.999940 -0.002369 -7.002477 89.998291 74.016113 -0.000565 16.998631 -14.002249 -0.004085 -20.002750 -27.002464 -0.002057 40.997440 -8.348969 0.194198 -40.774338 -6.526713 -4.286779 -8.710664 135.873581 -88.185608 -133.438080 -32.024239 -0.001398 -20.001877 44.997231 0.999224 -21.001129 0.000000 0.000000 -10.002190 36.399364 53.469830 -37.600178 90.479218 0.868210 -19.929089 10.999681 9.998943 19.999123 -32.002014 7.997613 -12.001884 112.994598 0.000000 0.000000 66.999611 0.000001 -0.000001 -32.000767 -10.002048 4.997875 109.999611 -0.000001 0.000001 66.999611 0.000001 -0.000001 
-30.004339 17.999720 11.999940 -0.002369 -7.002477 89.998291 73.978714 -0.000570 16.998627 -14.002249 -0.004084 -20.002748 -27.002462 -0.002057 40.997440 -7.811260 0.177608 -40.695774 -6.547753 -4.300892 -8.707271 152.188232 -88.158592 -152.315216 -33.700127 -0.001349 -20.001917 44.997231 0.999225 -21.001129 0.000000 0.000000 -10.002190 37.961380 55.099098 -36.038044 91.556343 0.883469 -19.936197 10.999681 9.998943 19.999121 -32.002014 7.997613 -12.001884 112.994598 0.000000 0.000000 66.999611 0.000001 -0.000001 -32.000767 -10.002048 4.997875 109.999611 -0.000001 0.000001 66.999611 0.000001 -0.000001 
-30.004339 17.999720 11.999940 -0.002369 -7.002477 89.998291 73.941307 -0.000575 16.998619 -14.002251 -0.004085 -20.002752 -27.002464 -0.002058 40.997440 -7.274123 0.160300 -40.617447 -6.568792 -4.315007 -8.703881 166.540207 -87.973183 -169.217667 -35.377796 -0.001301 -20.001951 44.997231 0.999224 -21.001129 0.000000 0.000000 -10.002190 39.668648 56.700378 -34.330627 92.628899 0.898530 -19.943563 10.999681 9.998944 19.999125 -32.002014 7.997613 -12.001884 112.994598 0.000000 0.000000 66.999611 0.000001 -0.000001 -32.000767 -10.002048 4.997875 109.999611 -0.000001 0.000001 66.999611 0.000001 -0.000001 
-30.004339 17.999720 11.999940 -0.002369 -7.002477 89.998291 73.903908 -0.000578 16.998615 -14.002249 -0.004085 -20.002750 -27.002462 -0.002057 40.997437 -6.737584 0.142278 -40.539379 -6.589830 -4.329123 -8.700498 177.490936 -87.669556 177.295624 -37.056557 -0.001248 -20.001991 44.997231 0.999224 -21.001127 0.000000 0.000000 -10.002190 41.538952 58.268925 -32.460217 93.696762 0.913380 -19.951178 10.999681 9.998943 19.999123 -32.002014 7.997613 -12.001884 112.994598 0.000000 0.000000 66.999611 0.000001 -0.000001 -32.000767 -10.002048 4.997875 109.999611 -0.000001 0.000001 66.999611 0.000001 -0.000001 
-30.004339 17.999720 11.999940 -0.002369 -7.002477 89.998291 73.866493 -0.000584 16.998608 -14.002250 -0.004085 -20.002752 -27.002464 -0.002056 40.997444 -6.201666 0.123546 -40.461563 -6.610869 -4.343240 -8.697119 -174.723450 -87.289841 166.990814 -38.735676 -0.001196 -20.002024 44.997231 0.999224 -21.001129 0.000000 0.000000 -10.002190 43.592171 59.799263 -30.406883 94.759720 0.928024 -19.959028 10.999681 9.998943 19.999123 -32.002014 7.997613 -12.001884 112.994598 0.000000 0.000000 66.999611 0.000001 -0.000001 -32.000767 -10.002048 4.997875 109.999611 -0.000001 0.000001 66.999611 0.000001 -0.000001 
-30.004339 17.999720 11.999940 -0.002369 -7.002477 89.998291 73.829102 -0.000588 16.998604 -14.002249 -0.004085 -20.002750 -27.002464 -0.002057 40.997440 -5.666393 0.104111 -40.384018 -6.631907 -4.357358 -8.693746 -169.315262 -86.864220 159.082474 -40.414429 -0.001143 -20.002054 44.997223 0.999224 -21.001129 0.000000 0.000000 -10.002190 44.735336 61.468212 -29.263369 95.817650 0.942449 -19.967108 10.999681 9.998943 19.999123 -32.002014 7.997613 -12.001884 112.994598 0.000000 0.000000 66.999611 0.000001 -0.000001 -32.000767 -10.002048 4.997875 109.999611 -0.000001 0.000001 66.999611 0.000001 -0.000001 
-30.004339 17.999720 11.999940 -0.002369 -7.002477 89.998291 73.791687 -0.000591 16.998598 -14.002249 -0.004085 -20.002750 -27.002464 -0.002057 40.997444 -5.131790 0.083976 -40.306759 -6.652943 -4.371477 -8.690375 -165.573013 -86.412407 152.861267 -42.092110 -0.001089 -20.002089 44.997231 0.999225 -21.001129 0.000000 0.000000 -10.002190 46.017906 63.126167 -27.980515 96.870407 0.956653 -19.975410 10.999682 9.998945 19.999125 -32.002014 7.997613 -12.001884 112.994598 0.000000 0.000000 66.999611 0.000001 -0.000001 -32.000767 -10.002048 4.997875 109.999611 -0.000001 0.000001 66.999611 0.000001 -0.000001 
-30.004339 17.999720 11.999940 -0.002369 -7.002477 89.998291 73.754288 -0.000596 16.998592 -14.002249 -0.004085 -20.002750 -27.002464 -0.002057 40.997440 -4.597877 0.063148 -40.229774 -6.673980 -4.385598 -8.687011 -162.986542 -85.945763 147.819031 -43.767982 -0.001034 -20.002113 44.997231 0.999224 -21.001129 0.000000 0.000000 -10.002190 47.465416 64.769836 -26.532694 97.917870 0.970631 -19.983936 10.999681 9.998943 19.999123 -32.002014 7.997613 -12.001884 112.994598 0.000000 0.000000 66.999611 0.000001 -0.000001 -32.000767 -10.002048 4.997875 109.999611 -0.000001 0.000001 66.999611 0.000001 -0.000001 
